<svg xmlns="http://www.w3.org/2000/svg" width="630.351" height="576.578" overflow="hidden">
   <defs>
      <clipPath id="prefix__a">
         <path d="M348 83h647v595H348z" clip-rule="evenodd" fill-rule="evenodd"/>
      </clipPath>
   </defs>
   <g clip-path="url(#prefix__a)" transform="translate(-355 -88)">
      <path d="M725 399h58v58h-58z" fill="#1884f0" fill-opacity=".502"/>
      <path d="M610 341h230v231H610z" fill="#1884f0" fill-opacity=".2"/>
      <path d="M435.769 108.934v464.425m57.886-464.425v464.425m57.887-464.425v464.425m57.886-464.425v464.425m57.887-464.425v464.425m57.886-464.425v464.425m57.887-464.425v464.425M377.216 167.487h464.425m-464.425 57.886h464.425M377.216 283.26h464.425m-464.425 57.886h464.425m-464.425 57.887h464.425m-464.425 57.886h464.425m-464.425 57.887h464.425M377.882 108.934v464.425m463.092-464.425v464.425M377.216 109.6h464.425M377.216 572.692h464.425" stroke-miterlimit="10" fill="none" stroke="#00b050" stroke-width="1.333" stroke-linejoin="round"/>
      <text font-weight="400" font-size="16" transform="translate(389.659 145)" font-family="'Cambria Math','Cambria Math_MSFontService',sans-serif">
         (0,0)<tspan x="57.886" y="0">(1,0)</tspan> <tspan x="0" y="58">(0,1)</tspan> <tspan x="69.053" y="58">…</tspan> <tspan x="231.546" y="231">(4,4)</tspan> <tspan x="289.433" y="231">(5,4)</tspan> <tspan x="231.546" y="289">(4,5)</tspan> <tspan x="300.599" y="289">…</tspan>
      </text>
      <path d="M379 110.499l.426 522.978-3 .002L376 110.501zm3.425 521.477l-4.493 9.004-4.507-8.997z" fill="#7030a0"/>
      <path d="M377.501 108l528.948.336-.002 3L377.499 111zm527.45-2.665l8.997 4.506-9.003 4.494z" fill="#7030a0"/>
      <path d="M610.868 341.332l62.216-138.376-2.737-1.23-62.215 138.376zm64.337-135.778l-.414-10.053-7.795 6.363zm165.987 135.884l136.56 43.57.91-2.858-136.558-43.57zM975.41 387.41l9.941-1.551-7.206-7.023zM841.235 573.076l99.024-103.639-2.17-2.072-99.024 103.639zm100.157-100.481l2.963-9.616-9.47 3.399zm-330.784 98.03l-107.032-95.347-1.995 2.24 107.031 95.347zm-103.916-96.59l-9.713-2.625 3.727 9.346z" fill="red"/>
      <path d="M610.255 339.204l140.068 81.607-1.51 2.592-140.068-81.607zm140.282 78.259l5.511 8.419-10.041-.642zM611.562 573.507L751.748 432.87l-2.125-2.118-140.185 140.637zM752.813 436.05l3.167-9.551-9.541 3.197zm88.495-96.61l-80.568 80.614 2.122 2.12 80.568-80.614zm-81.63 77.432l-3.178 9.547 9.545-3.185zm79.648 156.927l-80.393-140.048 2.602-1.493 80.392 140.047zm-82.248-137.253L756.5 426.5l8.383 5.565z" fill="#4472c4"/>
      <text font-weight="400" font-size="21" transform="translate(921.292 111)" font-family="'Cambria Math','Cambria Math_MSFontService',sans-serif">
         x<tspan x="-555.319" y="549">y</tspan>
      </text>
      <path stroke-miterlimit="8" d="M357.5 88.5h40v40h-40z" fill="#fff" stroke="#c00000"/>
      <text font-weight="400" font-size="16" transform="translate(359.815 115)" font-family="'Cambria Math','Cambria Math_MSFontService',sans-serif">
         (0,0)
      </text>
      <path stroke-miterlimit="8" d="M590.5 89.5h39v40h-39z" fill="#fff" stroke="#c00000"/>
      <text font-weight="400" font-size="16" transform="translate(592.458 116)" font-family="'Cambria Math','Cambria Math_MSFontService',sans-serif">
         (1,0)
      </text>
      <path stroke-miterlimit="8" d="M589.5 322.5h39v39h-39z" fill="#fff" stroke="#c00000"/>
      <text font-weight="400" font-size="16" transform="translate(591.458 348)" font-family="'Cambria Math','Cambria Math_MSFontService',sans-serif">
         (1,1)
      </text>
      <path stroke-miterlimit="8" d="M357.5 321.5h40v40h-40z" fill="#fff" stroke="#c00000"/>
      <text font-weight="400" font-size="16" transform="translate(359.909 348)" font-family="'Cambria Math','Cambria Math_MSFontService',sans-serif">
         (0,1)
      </text>
      <path stroke-miterlimit="8" d="M821.5 89.5h40v40h-40z" fill="#fff" stroke="#c00000"/>
      <text font-weight="400" font-size="16" transform="translate(824.025 116)" font-family="'Cambria Math','Cambria Math_MSFontService',sans-serif">
         (2,0)
      </text>
      <path stroke-miterlimit="8" d="M821.5 321.5h40v39h-40z" fill="#fff" stroke="#c00000"/>
      <text font-weight="400" font-size="16" transform="translate(823.606 347)" font-family="'Cambria Math','Cambria Math_MSFontService',sans-serif">
         (2,1)
      </text>
      <path stroke-miterlimit="8" d="M355.5 552.5h40v39h-40z" fill="#fff" stroke="#c00000"/>
      <text font-weight="400" font-size="16" transform="translate(357.909 578)" font-family="'Cambria Math','Cambria Math_MSFontService',sans-serif">
         (0,2)
      </text>
      <path stroke-miterlimit="8" d="M590.5 553.5h39v39h-39z" fill="#fff" stroke="#c00000"/>
      <text font-weight="400" font-size="16" transform="translate(592.467 579)" font-family="'Cambria Math','Cambria Math_MSFontService',sans-serif">
         (1,2)
      </text>
      <path stroke-miterlimit="8" d="M820.5 554.5h40v40h-40z" fill="#fff" stroke="#c00000"/>
      <text font-weight="400" font-size="16" transform="translate(823.025 580)" font-family="'Cambria Math','Cambria Math_MSFontService',sans-serif">
         (2,2)
      </text>
   </g>
</svg>
