<svg xmlns="http://www.w3.org/2000/svg" height="442" width="463">
    <g transform="translate(1 1) scale(400)">
        <g transform="translate(0.05 0.05)">
            <!--This is the noise grid-->
            <rect x="0" y="0" width="1" height="1" fill="rgba(0,0,255,0.1)" stroke="black" stroke-width="0.002"/>
            <line x1="0" y1="0.125" x2="1" y2="0.125" stroke="black" stroke-width="0.002"/>
            <line x1="0" y1="0.250" x2="1" y2="0.250" stroke="black" stroke-width="0.002"/>
            <line x1="0" y1="0.375" x2="1" y2="0.375" stroke="black" stroke-width="0.002"/>
            <line x1="0" y1="0.5" x2="1" y2="0.5" stroke="black" stroke-width="0.002"/>
            <line x1="0" y1="0.625" x2="1" y2="0.625" stroke="black" stroke-width="0.002"/>
            <line x1="0" y1="0.750" x2="1" y2="0.750" stroke="black" stroke-width="0.002"/>
            <line x1="0" y1="0.875" x2="1" y2="0.875" stroke="black" stroke-width="0.002"/>
            <line x1="0.125" y1="0" x2="0.125" y2="1" stroke="black" stroke-width="0.002"/>
            <line x1="0.250" y1="0" x2="0.250" y2="1" stroke="black" stroke-width="0.002"/>
            <line x1="0.375" y1="0" x2="0.375" y2="1" stroke="black" stroke-width="0.002"/>
            <line x1="0.5" y1="0" x2="0.5" y2="1" stroke="black" stroke-width="0.002"/>
            <line x1="0.625" y1="0" x2="0.625" y2="1" stroke="black" stroke-width="0.002"/>
            <line x1="0.750" y1="0" x2="0.750" y2="1" stroke="black" stroke-width="0.002"/>
            <line x1="0.875" y1="0" x2="0.875" y2="1" stroke="black" stroke-width="0.002"/>
            <text font-size="0.04" transform="translate(0.02 0.08)" font-family="'Cambria Math','Cambria Math_MSFontService',sans-serif">
                [0,0]
            </text>
            <text font-size="0.04" transform="translate(0.145 0.08)" font-family="'Cambria Math','Cambria Math_MSFontService',sans-serif">
                [1,0]
            </text>
            <text font-size="0.04" transform="translate(0.02 0.205)" font-family="'Cambria Math','Cambria Math_MSFontService',sans-serif">
                [0,1]
            </text>
        </g>
        <!--This is the gradient grid-->
        <rect x="0" y="0" width="0.1" height="0.1" fill="rgba(255,0,0,0.8)" stroke-width="0.002" stroke="black"/>
        <rect x="0.5" y="0" width="0.1" height="0.1" fill="rgba(255,0,0,0.8)" stroke-width="0.002" stroke="black"/>
        <rect x="1" y="0" width="0.1" height="0.1" fill="rgba(255,0,0,0.8)" stroke-width="0.002" stroke="black"/>
        <rect x="0" y="0.5" width="0.1" height="0.1" fill="rgba(255,0,0,0.8)" stroke-width="0.002" stroke="black"/>
        <rect x="0.5" y="0.5" width="0.1" height="0.1" fill="rgba(255,0,0,0.8)" stroke-width="0.002" stroke="black"/>
        <rect x="1" y="0.5" width="0.1" height="0.1" fill="rgba(255,0,0,0.8)" stroke-width="0.002" stroke="black"/>
        <rect x="0" y="1" width="0.1" height="0.1" fill="rgba(255,0,0,0.8)" stroke-width="0.002" stroke="black"/>
        <rect x="0.5" y="1" width="0.1" height="0.1" fill="rgba(255,0,0,0.8)" stroke-width="0.002" stroke="black"/>
        <rect x="1" y="1" width="0.1" height="0.1" fill="rgba(255,0,0,0.8)" stroke-width="0.002" stroke="black"/>
        <text font-size="0.04" transform="translate(0.007 0.065)" font-family="'Cambria Math','Cambria Math_MSFontService',sans-serif">
            [0,0]
        </text>
        <text font-size="0.04" transform="translate(0.007 0.565)" font-family="'Cambria Math','Cambria Math_MSFontService',sans-serif">
            [0,1]
        </text>
        <text font-size="0.04" transform="translate(0.507 0.065)" font-family="'Cambria Math','Cambria Math_MSFontService',sans-serif">
            [1,0]
        </text>
        <g transform="translate(0.55 0.55)">
            <!--This is the vectors and points-->
            <rect x="0" y="0" width="0.5" height="0.5" fill="rgba(34,34,219,0.2)"/>
            <rect x="0.25" y="0.125" width="0.125" height="0.125" fill="rgba(34,34,219,0.6)"/>
            <line x1="0" y1="0" x2="0.3125" y2="0.1875" stroke="navy" stroke-width="0.01"/>
            <line x1="0.5" y1="0" x2="0.3125" y2="0.1875" stroke="navy" stroke-width="0.01"/>
            <line x1="0" y1="0.5" x2="0.3125" y2="0.1875" stroke="navy" stroke-width="0.01"/>
            <line x1="0.5" y1="0.5" x2="0.3125" y2="0.1875" stroke="navy" stroke-width="0.01"/>
            <circle cx="0.3125" cy="0.1875" r="0.01" fill="#bebebe" stroke-width="0.002" stroke="black"/>
            <polygon points="0.34 0.1975, 0.3125 0.1875,0.322 0.215" fill="navy" transform="rotate(13 0.3125 0.1875)"/>
            <polygon points="0.34 0.1975, 0.3125 0.1875,0.322 0.215" fill="navy" transform="rotate(90 0.3125 0.1875)"/>
            <polygon points="0.34 0.1975, 0.3125 0.1875,0.322 0.215" fill="navy" transform="rotate(270 0.3125 0.1875)"/>
            <polygon points="0.34 0.1975, 0.3125 0.1875,0.322 0.215" fill="navy" transform="rotate(167 0.3125 0.1875)"/>
            <g transform="translate(-0.01 -0.30) rotate(30 0.01 0.30)">
                <line x1="0.01" y1="0.02" x2="0.01" y2="0.30" stroke="#b10995" stroke-width="0.01"/>
                <polygon points="0.01 0, 0.02 0.025, 0 0.025" fill="#b10995"/>
            </g>
            <g transform="translate(0.49 -0.30) rotate(160 0.01 0.30)">
                <line x1="0.01" y1="0.02" x2="0.01" y2="0.30" stroke="#b10995" stroke-width="0.01"/>
                <polygon points="0.01 0, 0.02 0.025, 0 0.025" fill="#b10995"/>
            </g>
            <g transform="translate(-0.01 0.20) rotate(310 0.01 0.30)">
                <line x1="0.01" y1="0.02" x2="0.01" y2="0.30" stroke="#b10995" stroke-width="0.01"/>
                <polygon points="0.01 0, 0.02 0.025, 0 0.025" fill="#b10995"/>
            </g>
            <g transform="translate(0.49 0.20) rotate(350 0.01 0.30)">
                <line x1="0.01" y1="0.02" x2="0.01" y2="0.30" stroke="#b10995" stroke-width="0.01"/>
                <polygon points="0.01 0, 0.02 0.025, 0 0.025" fill="#b10995"/>
            </g>
            <circle cx="0" cy="0" r="0.01" fill="red" stroke-width="0.002" stroke="black"/>
            <circle cx="0.5" cy="0" r="0.01" fill="red" stroke-width="0.002" stroke="black"/>
            <circle cx="0" cy="0.5" r="0.01" fill="red" stroke-width="0.002" stroke="black"/>
            <circle cx="0.5" cy="0.5" r="0.01" fill="red" stroke-width="0.002" stroke="black"/>
        </g>
    </g>
</svg>
