<svg xmlns="http://www.w3.org/2000/svg" height="381" width="439">
   <g transform="translate(34 38) scale(250)">
      <g transform="translate(0.25 0)">
         <line x1="0.2" y1="0.04" x2="0.8" y2="0.04" stroke="orange" stroke-width="0.01"/>
         <line x1="0.04" y1="0.2" x2="0.04" y2="0.56" stroke="orange" stroke-width="0.01"/>
         <polygon points="0.06 0.52,0.04 0.57,0.02 0.52" fill="orange"/>
         <polygon points="0.77 0.06,0.82 0.04,0.77 0.02" fill="orange"/>
         <line x1="-0.005" y1="0" x2="1.31" y2="0" stroke="black" stroke-width="0.01"/>
         <line x1="0" y1="0" x2="0" y2="1.31" stroke="black" stroke-width="0.01"/>
         <line x1="-0.05" y1="0.2" x2="0.05" y2="0.2" stroke="black" stroke-width="0.01"/>
         <line x1="-0.05" y1="0.575" x2="1.2" y2="0.575" stroke="red" stroke-width="0.01"/>
         <line x1="0.2" y1="-0.05" x2="0.2" y2="0.05" stroke="black" stroke-width="0.01"/>
         <line x1="0.825" y1="-0.05" x2="0.825" y2="1.2" stroke="red" stroke-width="0.01"/>
         <polygon points="-0.025 1.3,0 1.37,0.025 1.3" fill="black"/>
         <polygon points="1.3 -0.025,1.37 0,1.3 0.025" fill="black"/>
         <text font-size="0.08" transform="translate(1.33 -0.03)" font-family="'Cambria Math','Cambria Math_MSFontService',sans-serif">
            x
         </text>
         <text font-size="0.08" transform="translate(-0.07 1.35)" font-family="'Cambria Math','Cambria Math_MSFontService',sans-serif">
            y
         </text>
         <g transform="translate(0.1 0.1)">
            <g transform="translate(0.1 0.1)">
               <!--This is the noise grid-->
               <rect x="0" y="0" width="1" height="1" fill="rgba(0,0,255,0.1)" stroke="black" stroke-width="0.002"/>
               <line x1="0" y1="0.25" x2="1" y2="0.25" stroke="black" stroke-width="0.002"/>
               <line x1="0" y1="0.5" x2="1" y2="0.5" stroke="black" stroke-width="0.002"/>
               <line x1="0" y1="0.75" x2="1" y2="0.75" stroke="black" stroke-width="0.002"/>
               <line x1="0.25" y1="0" x2="0.25" y2="1" stroke="black" stroke-width="0.002"/>
               <line x1="0.5" y1="0" x2="0.5" y2="1" stroke="black" stroke-width="0.002"/>
               <line x1="0.75" y1="0" x2="0.75" y2="1" stroke="black" stroke-width="0.002"/>
               <rect x="0.5" y="0.25" width="0.25" height="0.25" fill="rgba(0,0,255,0.4)"/>
               <rect x="0.525" y="0.275" width="0.2" height="0.2" fill="purple" stroke-width="0.002" stroke="black"/>
               <rect x="0.525" y="-0.1" width="0.2" height="0.2" fill="#a350a3" stroke-width="0.002" stroke="black"/>
               <rect x="0.525" y="0.9" width="0.2" height="0.2" fill="#a350a3" stroke-width="0.002" stroke="black"/>
            </g>
            <rect x="0" y="0" width="0.2" height="0.2" fill="#eeaaee" stroke-width="0.002" stroke="black"/>
            <rect x="1" y="0" width="0.2" height="0.2" fill="#eeaaee" stroke-width="0.002" stroke="black"/>
            <rect x="0" y="1" width="0.2" height="0.2" fill="#eeaaee" stroke-width="0.002" stroke="black"/>
            <rect x="1" y="1" width="0.2" height="0.2" fill="#eeaaee" stroke-width="0.002" stroke="black"/>
         </g>
      </g>
      <text font-size="0.08" transform="translate(0.15 0.225)" font-family="'Cambria Math','Cambria Math_MSFontService',sans-serif">
         0
      </text>
      <text fill="purple" font-size="0.08" transform="translate(-0.11 0.6)" font-family="'Cambria Math','Cambria Math_MSFontService',sans-serif">
         Y=0.375
      </text>
      <text fill="purple" font-size="0.08" transform="translate(0.9 -0.07)" font-family="'Cambria Math','Cambria Math_MSFontService',sans-serif">
         X=0.625
      </text>
      <text font-size="0.08" transform="translate(0.43 -0.07)" font-family="'Cambria Math','Cambria Math_MSFontService',sans-serif">
         0
      </text>
      <text font-size="0.1" transform="translate(0.41 0.225)" font-family="'Cambria Math','Cambria Math_MSFontService',sans-serif">
         A
      </text>
      <text font-size="0.1" transform="translate(1.41 0.225)" font-family="'Cambria Math','Cambria Math_MSFontService',sans-serif">
         B
      </text>
      <text fill="red" font-size="0.1" transform="translate(0.41 1.225)" font-family="'Cambria Math','Cambria Math_MSFontService',sans-serif">
         C
      </text>
      <text fill="red" font-size="0.1" transform="translate(1.41 1.225)" font-family="'Cambria Math','Cambria Math_MSFontService',sans-serif">
         D
      </text>
      <text font-size="0.1" transform="translate(1.01 0.225)" font-family="'Cambria Math','Cambria Math_MSFontService',sans-serif">
         AB
      </text>
      <text font-size="0.1" transform="translate(1.01 1.225)" font-family="'Cambria Math','Cambria Math_MSFontService',sans-serif">
         DC
      </text>
      <text fill="white" font-size="0.07" transform="translate(0.99 0.6)" font-family="'Cambria Math','Cambria Math_MSFontService',sans-serif">
         ABDC
      </text>
   </g>
</svg>
