<svg xmlns="http://www.w3.org/2000/svg" width="380.445" height="383.156" overflow="hidden">
   <defs>
      <clipPath id="prefix__a">
         <path d="M467 191h414v408H467z" clip-rule="evenodd" fill-rule="evenodd"/>
      </clipPath>
   </defs>
   <g clip-path="url(#prefix__a)" transform="translate(-472 -202.422)">
      <path d="M493 248h245v247H493z" fill="#1884f0" fill-opacity=".2"/>
      <path d="M772 249v83.533h-2V249zm3 82.2l-4 8-4-8zM492 221h145.646v-2H492zm144.312 3l8-4-8-4zM492 524h145.646v2H492zm144.312-3l8 4-8 4z" fill="#ed7d31"/>
      <path d="M553.871 247.452v248.026m61.473-248.026v248.026m61.474-248.026v248.026M491.731 309.792h247.227m-247.227 61.673h247.227m-247.227 61.673h247.227M492.397 247.452v248.026m245.894-248.026v248.026m-246.56-247.36h247.227M491.731 494.811h247.227" stroke-miterlimit="10" fill="none" stroke="#1884f0" stroke-width="1.333" stroke-linejoin="round"/>
      <path d="M490.5 247h339.458v3H490.5zm337.958-3l9 4.5-9 4.5z" fill="#7030a0"/>
      <path d="M616 310h60v61h-60z" fill="#1884f0" fill-opacity=".502"/>
      <text font-weight="400" font-size="21" transform="translate(842.533 249)" font-family="'Cambria Math','Cambria Math_MSFontService',sans-serif">
         x<tspan x="-361.788" y="332">y</tspan>
      </text>
      <path stroke-miterlimit="8" d="M719.5 228.5h39v40h-39z" fill="#fff" stroke="#c00000"/>
      <text font-weight="400" font-size="21" transform="translate(720.961 256)" font-family="'Cambria Math','Cambria Math_MSFontService',sans-serif">
         <tspan x="4.667" y="0">D</tspan> <tspan font-size="15" x="18.833" y="4">B</tspan>
      </text>
      <path stroke-miterlimit="8" d="M719.5 475.5h39v40h-39z" fill="#fff" stroke="#c00000"/>
      <text font-weight="400" font-size="21" transform="translate(721.289 503)" font-family="'Cambria Math','Cambria Math_MSFontService',sans-serif">
         <tspan x="4.667" y="0">D</tspan> <tspan font-size="15" x="18.833" y="4">C</tspan>
      </text>
      <path d="M646 216v310.776" stroke-miterlimit="8" fill="none" stroke="#000" stroke-width="2"/>
      <text font-weight="400" font-size="19" transform="translate(776.143 297)" font-family="'Cambria Math','Cambria Math_MSFontService',sans-serif">
         Y<tspan x="-213.013" y="-82">X</tspan>
      </text>
      <path stroke-miterlimit="8" d="M627.5 228.5h39v39h-39z" fill="#fff" stroke="#c00000"/>
      <text font-weight="400" font-size="21" transform="translate(628.503 256)" font-family="'Cambria Math','Cambria Math_MSFontService',sans-serif" fill="#c00">
         <tspan x="4.667" y="0">AB</tspan>
      </text>
      <path stroke-miterlimit="8" d="M626.5 475.5h40v40h-40z" fill="#fff" stroke="#c00000"/>
      <text font-weight="400" font-size="21" transform="translate(628.503 503)" font-family="'Cambria Math','Cambria Math_MSFontService',sans-serif" fill="#c00">
         <tspan x="4.667" y="0">DC</tspan> <tspan font-size="19" x="-65.373" y="16" fill="#000">X</tspan>
      </text>
      <path d="M492 340h281.11" stroke-miterlimit="8" fill="none" stroke="#000" stroke-width="2"/>
      <path stroke-miterlimit="8" d="M627.5 321.5h39v39h-39z" fill="#fff" stroke="#c00000"/>
      <text font-weight="400" font-size="14" transform="translate(630.156 345)" font-family="'Cambria Math','Cambria Math_MSFontService',sans-serif" fill="#c00">
         ABDC
      </text>
      <path d="M491 214.5v343.56h3V214.5zm-3 342.06l4.5 9 4.5-9z" fill="#7030a0"/>
      <path stroke-miterlimit="8" d="M472.5 228.5h40v40h-40z" fill="#fff" stroke="#c00000"/>
      <text font-weight="400" font-size="21" transform="translate(474.389 256)" font-family="'Cambria Math','Cambria Math_MSFontService',sans-serif">
         <tspan x="4.667" y="0">D</tspan> <tspan font-size="15" x="18.833" y="4">A</tspan>
      </text>
      <path stroke-miterlimit="8" d="M472.5 475.5h39v40h-39z" fill="#fff" stroke="#c00000"/>
      <text font-weight="400" font-size="21" transform="translate(473.731 503)" font-family="'Cambria Math','Cambria Math_MSFontService',sans-serif">
         <tspan x="4.667" y="0">D</tspan> <tspan font-size="15" x="18.833" y="4">D</tspan>
      </text>
   </g>
</svg>
