<svg width="370" height="195" xmlns="http://www.w3.org/2000/svg">
    <g transform="translate(-113 -108)">
        <path d="M115 205C119.585 192.62 124.17 180.24 131.048 170.919 137.926 161.597 149.898 154.898 156.266 149.072 162.635 143.246 163.144 139.168 169.258 135.964 175.371 132.759 185.56 126.788 192.948 129.847 200.335 132.905 207.085 148.198 213.581 154.315 220.076 160.432 226.954 165.967 231.921 166.549 236.889 167.132 238.29 156.5 243.384 157.811 248.479 159.121 257.012 167.569 262.489 174.414 267.966 181.26 271.659 193.785 276.245 198.883 280.83 203.98 285.415 204.49 290 205" stroke="#4472C4" stroke-width="2" stroke-miterlimit="8" fill="none" fill-rule="evenodd"/>
        <path d="M290 205.217C296.745 207.347 303.49 209.477 308.476 214.954 313.462 220.43 313.169 229.558 319.914 238.078 326.659 246.597 341.469 255.928 348.948 266.07 356.426 276.212 357.746 297.51 364.784 298.93 371.823 300.35 382.087 279.66 391.179 274.589 400.27 269.518 412.148 274.792 419.333 268.504 426.518 262.216 425.785 244.974 434.289 236.861 442.794 228.747 463.47 225.298 470.362 219.822 477.254 214.345 476.081 211.708 475.641 204" stroke="#4472C4" stroke-width="2" stroke-miterlimit="8" fill="none" fill-rule="evenodd"/>
        <path d="M115.5 205.5C120.085 192.957 124.67 180.414 131.548 170.97 138.426 161.526 150.398 154.738 156.766 148.836 163.135 142.934 163.644 138.802 169.758 135.555 175.871 132.309 186.06 126.259 193.448 129.358 200.835 132.457 207.585 147.951 214.081 154.148 220.576 160.346 227.454 165.953 232.421 166.543 237.389 167.134 238.79 156.362 243.884 157.69 248.979 159.018 257.512 167.576 262.989 174.512 268.466 181.447 272.159 194.138 276.745 199.302 281.33 204.467 285.915 204.984 290.5 205.5" stroke="orange" stroke-width="3" stroke-miterlimit="8" stroke-dasharray="12 9" fill="none" fill-rule="evenodd"/>
        <path d="M289.5 205.493C293.913 204.192 298.325 202.891 301.489 201.213 304.653 199.534 306.36 198.485 308.483 195.422 310.606 192.358 312.604 186.274 314.227 182.833 315.851 179.392 316.392 177.503 318.224 174.776 320.055 172.048 322.511 169.279 325.217 166.467 327.923 163.656 331.087 160.97 334.459 157.907 337.831 154.843 342.327 151.78 345.449 148.087 348.571 144.395 351.027 140.492 353.192 135.75 355.356 131.008 356.897 123.665 358.437 119.636 359.977 115.608 361.143 113.048 362.433 111.579 363.724 110.111 364.598 110.446 366.18 110.824 367.762 111.202 369.468 111.453 371.924 113.845 374.38 116.237 378.085 121.776 380.916 125.175 383.747 128.574 386.078 132.183 388.909 134.239 391.739 136.296 394.112 136.841 397.9 137.513 401.689 138.184 407.891 137.555 411.638 138.268 415.384 138.981 417.632 137.555 420.38 141.793 423.127 146.031 425.958 158.536 428.123 163.698 430.287 168.859 430.953 170.202 433.368 172.762 435.782 175.321 437.905 176.748 442.609 179.056 447.313 181.364 456.513 184.26 461.592 186.609 466.671 188.959 470.625 191.184 473.081 193.156 475.538 195.128 475.829 196.219 476.328 198.443 476.828 200.667 476.079 205.073 476.079 206.5" stroke="orange" stroke-width="3" stroke-miterlimit="8" stroke-dasharray="12 9" fill="none" fill-rule="evenodd"/>
        <line x1="115" y1="205" x2="500" y2="205" stroke="black" stroke-width="4"/>
        <line x1="115" y1="308" x2="115" y2="113" stroke="black" stroke-width="4"/>
    </g>
</svg>
