<svg xmlns="http://www.w3.org/2000/svg" height="300" width="300">
   <g transform="translate(40 20) scale(250)">
      <line x1="0" y1="0" x2="1" y2="0" stroke="gray" stroke-width="0.005"/>
      <line x1="0" y1="0.2" x2="1" y2="0.2" stroke="gray" stroke-width="0.005"/>
      <line x1="0" y1="0.4" x2="1" y2="0.4" stroke="gray" stroke-width="0.005"/>
      <line x1="0" y1="0.6" x2="1" y2="0.6" stroke="gray" stroke-width="0.005"/>
      <line x1="0" y1="0.8" x2="1" y2="0.8" stroke="gray" stroke-width="0.005"/>
      <line x1="0.2" y1="0" x2="0.2" y2="1" stroke="gray" stroke-width="0.005"/>
      <line x1="0.4" y1="0" x2="0.4" y2="1" stroke="gray" stroke-width="0.005"/>
      <line x1="0.6" y1="0" x2="0.6" y2="1" stroke="gray" stroke-width="0.005"/>
      <line x1="0.8" y1="0" x2="0.8" y2="1" stroke="gray" stroke-width="0.005"/>
      <line x1="1" y1="0" x2="1" y2="1" stroke="gray" stroke-width="0.005"/>
      <line x1="-0.03" y1="1" x2="1.03" y2="1" stroke="black" stroke-width="0.01"/>
      <line x1="0" y1="-0.03" x2="0" y2="1.03" stroke="black" stroke-width="0.01"/>
      <text font-size="0.08" font-family="'Cambria Math','Cambria Math_MSFontService',sans-serif">
         <tspan y="0.025" x="-0.09">1</tspan>
         <tspan y="0.225" x="-0.15">0.8</tspan>
         <tspan y="0.425" x="-0.15">0.6</tspan>
         <tspan y="0.625" x="-0.15">0.4</tspan>
         <tspan y="0.825" x="-0.15">0.2</tspan>
         <tspan y="1.025" x="-0.09">0</tspan>
         <tspan y="1.1" x="-0.022">0</tspan>
         <tspan y="1.1" x="0.15">0.2</tspan>
         <tspan y="1.1" x="0.35">0.4</tspan>
         <tspan y="1.1" x="0.55">0.6</tspan>
         <tspan y="1.1" x="0.75">0.8</tspan>
         <tspan y="1.1" x="0.975">1</tspan>
      </text>
   </g>
   <g transform="translate(37 7) scale(0.67 1.09)">
      <path d="M4.2 240h3.599L9 239.994l1.198-.006 1.202-.006 1.198-.006 1.202-.013 1.199-.018 1.201-.018 1.199-.022 1.199-.03 1.201-.031 1.199-.042 1.202-.043 1.198-.046 1.201-.061 1.199-.061 1.202-.07 1.198-.08 1.202-.082 1.199-.091 1.199-.1L33 239.06l1.199-.116 1.202-.125 1.198-.138 1.202-.143 1.198-.156 1.202-.165 1.199-.174 1.201-.183 1.199-.192 1.199-.211 1.201-.217 1.199-.223 1.202-.238 1.198-.254 1.201-.263 1.199-.269 1.202-.29 1.199-.293 1.201-.311 1.199-.324 1.199-.33 1.201-.348 1.199-.36 1.202-.373 1.198-.384 1.202-.4 1.198-.41 1.202-.427 1.198-.437 1.202-.449 1.199-.464 1.199-.48 1.201-.492 1.199-.504 1.202-.522 1.198-.528 1.202-.546 1.198-.556 1.202-.577 1.198-.59 1.202-.598 1.199-.61 1.171-.615 1.144-.61 1.122-.614 1.104-.611 1.082-.61 1.055-.615 1.043-.61 1.027-.608 1.003-.61.994-.614.972-.605.966-.61.942-.609.936-.604.926-.614.911-.604.893-.608.89-.605.874-.61.872-.609.856-.604.847-.608.835-.604.834-.608.82-.604.81-.608.804-.605.798-.605.792-.608.78-.604.78-.608.77-.598.762-.608.755-.604.749-.608.746-.605.737-.601.737-.605.728-.605.718-.608.722-.598.712-.608.71-.604.7-.602.697-.604.697-.608.688-.599.685-.607.685-.599.676-.605.672-.601.667-.605.666-.608.667-.598.658-.608.654-.598.648-.608.648-.598.648-.608.642-.599.636-.608.636-.598.636-.605.63-.601.63-.599.624-.608.618-.598.624-.608.614-.598.618-.608.612-.598.605-.602.605-.605.606-.601.608-.599.6-.604.592-.602.6-.605.596-.602.587-.598.587-.608.59-.598.588-.602.586-.598.582-.608.578-.598.58-.602.578-.604.575-.602.569-.599.578-.607.568-.599.572-.599.563-.601.569-.605.566-.602.562-.598.56-.602.562-.604.56-.602.556-.598.56-.602.55-.598.56-.608.55-.598.554-.602.55-.599.547-.601.55-.605.548-.598.547-.602.544-.599.548-.601.538-.605.547-.602.541-.598.538-.602.542-.598.538-.602.541-.598.535-.608.538-.598.536-.602.532-.598.534-.602.536-.598.532-.602.535-.605.529-.601.532-.599.529-.599.535-.601.526-.599.529-.601.529-.599.526-.602.529-.598.529-.608.526-.598.522-.602.53-.598.522-.602.526-.598.523-.602.53-.598.519-.602.523-.598.523-.602.526-.599.522-.601.524-.599.522-.601.52-.599.523-.599.523-.607.52-.599.516-.602.523-.598.523-.602.52-.598.522-.602.524-.598.516-.602.52-.598.523-.602.523-.598.52-.602.516-.598.523-.602.523-.598.52-.602.523-.599.523-.601.522-.593.52-.601.523-.599.523-.601.52-.599.522-.599.524-.601.522-.599.52-.601.523-.599.53-.602.519-.598.523-.602.529-.598.52-.602.528-.598.53-.602.522-.598.526-.596.529-.598.53-.602.525-.598.529-.602.53-.598.53-.602.53-.598.53-.602.53-.592.536-.602.535-.599.526-.601.542-.599.534-.601.532-.599.536-.599.538-.595.541-.599.535-.601.538-.599.542-.601.544-.599.541-.596.547-.598.538-.602.548-.598.544-.602.548-.598.55-.596.547-.598.553-.602.551-.598.553-.602.55-.592.56-.602.55-.598.56-.602.556-.592.566-.602.557-.598.565-.602.563-.592.563-.602.572-.598.562-.602.572-.592.575-.602.572-.599.575-.601.574-.593.578-.601.581-.599.58-.595.585-.599.581-.602.587-.592.59-.602.594-.598.592-.592.594-.602.596-.599.6-.595.598-.599.606-.601.605-.593.61-.601.61-.593.612-.601.612-.599.617-.595.624-.599.624-.595.624-.599.632-.595.63-.599.63-.602.642-.592.636-.602.642-.592.646-.602.648-.592.654-.602.654-.592.661-.602.666-.592.667-.596.67-.598.672-.596.679-.598.685-.596.682-.598.691-.596.697-.592.7-.602.704-.592.706-.596.716-.598.712-.596.728-.592.724-.595.734-.599.743-.595.743-.593.752-.595.756-.599.761-.595.768-.593.773-.595.786-.593.786-.595.798-.595.804-.593.81-.595.823-.593.828-.595.835-.593.844-.595.853-.592.865-.596.875-.592.88-.596.897-.592.904-.59.918-.592.932-.596.942-.586.954-.596.966-.586.982-.596.997-.586 1.015-.595 1.03-.59 1.046-.586 1.067-.595 1.086-.586 1.104-.59 1.128-.586 1.152-.59 1.169-.586 1.201-.583 1.199-.577 1.202-.556 1.198-.546 1.202-.529 1.198-.516 1.202-.504 1.198-.492 1.202-.48 1.199-.463 1.199-.449 1.201-.437 1.199-.428 1.202-.406 1.198-.396 1.202-.386 1.198-.372 1.202-.36 1.198-.348 1.202-.336 1.199-.318 1.199-.312 1.201-.292 1.199-.281 1.202-.279 1.198-.256 1.202-.254 1.198-.238 1.202-.228 1.198-.218 1.202-.204 1.199-.192 1.199-.184 1.201-.174 1.199-.162 1.202-.152 1.198-.144 1.202-.137 1.198-.125 1.202-.116 1.198-.107 1.202-.1 1.199-.093 1.199-.082 1.201-.08 1.199-.07 1.202-.061 1.198-.055 1.202-.052 1.198-.042 1.202-.037 1.198-.037 1.202-.024 1.199-.022 1.199-.018 1.201-.018 1.199-.012 1.202-.012 1.198-.006h1.202l1.198-.006h6l1.201-.006h1.199l1.202-.007 1.198-.006 1.202-.012 1.198-.013 1.202-.018 1.198-.024 1.202-.022 2.398-.073 1.201-.049 1.199-.052" fill="none" stroke="#1c0879" stroke-width="3"/>
   </g>
   <g transform="translate(40 20) scale(250)">
      <line x1="-0.03" y1="1" x2="1.03" y2="1" stroke="black" stroke-width="0.01"/>
      <line x1="0" y1="-0.03" x2="0" y2="1.03" stroke="black" stroke-width="0.01"/>
   </g>
</svg>
