<svg xmlns="http://www.w3.org/2000/svg" xmlns:xlink="http://www.w3.org/1999/xlink" overflow="hidden" height="308.796" width="859.899">
   <g transform="matrix(1.2 0 0 1.2 -14.982 -14.004)">
      <defs>
         <clipPath id="prefix__a">
            <path d="M50 65h740v282H50z" clip-rule="evenodd" fill-rule="evenodd"/>
         </clipPath>
         <clipPath id="prefix__b">
            <path d="M0 0h88v82H0z" clip-rule="evenodd" fill-rule="evenodd"/>
         </clipPath>
      </defs>
      <g transform="translate(-50 -65)" clip-path="url(#prefix__a)">
         <path stroke-miterlimit="10" d="M266.5 156.5v9.451m-7-4.451h12.742" fill="none" stroke="#ed7d31" stroke-linejoin="round" stroke-dasharray="4 3"/>
         <path stroke-miterlimit="10" d="M466 312.78L578.858 267M579 98v169.101m1-.101h177.908" fill="none" stroke="#4472c4" stroke-width="2" stroke-linejoin="round" stroke-dasharray="8 6"/>
         <path stroke-miterlimit="8" d="M534.5 143.28L647.358 97.5" fill="none" stroke="#ed7d31"/>
         <path stroke-miterlimit="10" d="M534.5 313.28l112.858-45.78" fill="none" stroke="#ed7d31" stroke-linejoin="round" stroke-dasharray="4 3"/>
         <path stroke-miterlimit="8" d="M542.5 112.5h177.908" fill="none" stroke="#ed7d31"/>
         <path stroke-miterlimit="10" d="M610.5 112.5v169.101m-68 .899h177.908" fill="none" stroke="#ed7d31" stroke-linejoin="round" stroke-dasharray="4 3"/>
         <path stroke-miterlimit="8" d="M534.5 143.5v169.101m186-200.101v169.101" fill="none" stroke="#ed7d31"/>
         <path stroke-miterlimit="10" d="M647.5 98.5v169.101M542.5 112.5v169.101" fill="none" stroke="#ed7d31" stroke-linejoin="round" stroke-dasharray="4 3"/>
         <path stroke-miterlimit="8" d="M466.5 206.5h177.908" fill="none" stroke="#ed7d31"/>
         <path stroke-miterlimit="10" d="M579.5 160.5h177.908" fill="none" stroke="#ed7d31" stroke-linejoin="round" stroke-dasharray="4 3"/>
         <path stroke-miterlimit="8" d="M644.5 206.28l112.858-45.78" fill="none" stroke="#ed7d31"/>
         <path stroke-miterlimit="10" d="M467.5 206.28l112.858-45.78M534.5 206.28l112.858-45.78m-104.858 15h177.908" fill="none" stroke="#ed7d31" stroke-linejoin="round" stroke-dasharray="4 3"/>
         <path stroke-miterlimit="8" d="M607.5 176a2.5 2.5 0 115 0 2.5 2.5 0 01-5 0z" fill="red" fill-rule="evenodd" stroke="#c00000"/>
         <path stroke-miterlimit="10" d="M85 312.78L197.858 267M197 98v169.101m0-.101h177.908" fill="none" stroke="#4472c4" stroke-width="2" stroke-linejoin="round" stroke-dasharray="8 6"/>
         <path stroke-miterlimit="10" d="M228.5 113.5v169.101m-75-75.321l112.858-45.78m-105.858 14h177.908" fill="none" stroke="#ed7d31" stroke-linejoin="round" stroke-dasharray="4 3"/>
         <path stroke-miterlimit="8" d="M226.5 176c0-1.381.895-2.5 2-2.5s2 1.119 2 2.5-.895 2.5-2 2.5-2-1.119-2-2.5z" fill="red" fill-rule="evenodd" stroke="#c00000"/>
         <path d="M375.32 99.058l-7.073 3.74.468.884 7.072-3.74zm-9.725 5.142l-7.072 3.74.467.883 7.072-3.739zm-9.724 5.142l-7.072 3.74.467.883 7.072-3.74zm-9.725 5.142l-7.072 3.74.468.883 7.072-3.74zm-9.724 5.141l-7.072 3.74.467.884 7.073-3.74zm-9.724 5.142l-7.072 3.74.467.884 7.072-3.74zm-9.724 5.142l-7.073 3.74.468.884 7.072-3.74zm-9.725 5.142l-7.072 3.74.468.884 7.072-3.74zm-9.724 5.142l-7.072 3.74.467.883 7.073-3.739zm-9.724 5.142l-7.072 3.74.467.883 7.072-3.74zm-9.724 5.142l-7.073 3.74.468.883 7.072-3.74zm-9.725 5.141l-7.072 3.74.468.884 7.072-3.74zm-9.724 5.142l-7.072 3.74.467.884 7.073-3.74zm-9.724 5.142l-7.072 3.74.467.884 7.072-3.74zm-9.724 5.142l-7.073 3.74.468.884 7.072-3.74zm-3.339-3.437l-5.343 8.593 10.11.422a.5.5 0 10.041-1l-9.253-.385.404.764 4.89-7.865a.5.5 0 10-.849-.529zm139.941 99.773l-6.816-4.189.524-.852 6.815 4.189zm-9.372-5.76l-6.815-4.189.523-.852 6.816 4.189zm-9.371-5.759l-6.816-4.189.524-.852 6.815 4.189zm-9.372-5.76l-6.815-4.189.523-.852 6.816 4.189zm-9.371-5.76l-6.816-4.189.524-.852 6.816 4.189zm-9.372-5.76l-6.815-4.189.524-.852 6.815 4.189zm-9.371-5.76l-6.816-4.189.524-.852 6.816 4.189zm-9.371-5.76l-6.816-4.189.524-.852 6.815 4.189zm-9.372-5.76l-6.815-4.189.523-.852 6.816 4.189zm-9.371-5.76l-6.816-4.189.524-.852 6.815 4.189zm-9.372-5.76l-6.815-4.189.523-.852 6.816 4.189zm-9.371-5.759l-6.816-4.19.524-.851 6.816 4.189zm-9.371-5.76l-6.816-4.189.524-.852 6.815 4.189zm-9.372-5.76l-6.815-4.189.523-.852 6.816 4.189zm-9.371-5.76l-6.816-4.189.524-.852 6.815 4.189zm-9.372-5.76l-4.13-2.538.524-.852 4.13 2.538zm.065 5.437l-4.777-8.92 10.116.233a.5.5 0 11-.023 1l-9.259-.214.452-.736 4.372 8.165a.5.5 0 11-.881.472z"/>
         <path d="M262.398 313.655l-1.974-7.753.969-.246 1.974 7.752zm-2.714-10.66l-1.974-7.753.969-.246 1.974 7.752zm-2.715-10.66l-1.974-7.752.969-.247 1.975 7.752zm-2.714-10.66l-1.974-7.752.969-.247 1.974 7.753zm-2.714-10.66l-1.974-7.752.969-.247 1.974 7.753zm-2.714-10.659l-1.974-7.753.969-.247 1.974 7.753zm-2.715-10.66l-1.974-7.753.969-.247 1.974 7.753zm-2.714-10.66l-1.974-7.753.969-.247 1.974 7.753zm-2.714-10.66l-1.974-7.753.969-.246 1.974 7.752zm-2.714-10.66l-1.975-7.752.97-.247 1.974 7.752zm-2.715-10.66l-1.974-7.752.969-.247 1.974 7.753zm-2.714-10.66l-1.974-7.752.969-.247 1.974 7.753zm-2.714-10.659l-1.567-6.153.969-.247 1.567 6.153zm-4.112 2.489l2.784-9.728 7.098 7.212a.5.5 0 11-.713.701l-6.496-6.601.837-.213-2.548 8.904a.5.5 0 01-.962-.275zM85.847 314.091l5.765-5.546-.693-.72-5.766 5.546zm7.927-7.626l5.766-5.546-.694-.72-5.765 5.546zm7.928-7.626l5.765-5.546-.693-.72-5.766 5.546zm7.927-7.626l5.765-5.546-.693-.72-5.765 5.546zm7.927-7.626l5.766-5.546-.693-.72-5.766 5.546zm7.928-7.626l5.765-5.546-.693-.72-5.765 5.546zm7.927-7.626l5.766-5.546-.694-.72-5.765 5.546zm7.928-7.626l5.765-5.546-.693-.72-5.766 5.546zm7.927-7.626l5.766-5.546-.694-.72-5.765 5.546zm7.928-7.626l5.765-5.546-.693-.72-5.766 5.546zm7.927-7.626l5.765-5.546-.693-.72-5.765 5.546zm7.927-7.626l5.766-5.546-.693-.72-5.766 5.546zm7.928-7.626l5.765-5.546-.693-.72-5.765 5.546zm7.927-7.626l5.766-5.546-.694-.721-5.765 5.547zm7.928-7.626l5.765-5.546-.693-.721-5.766 5.547zm7.927-7.626l5.765-5.546-.693-.721-5.765 5.547zm7.927-7.626l5.766-5.546-.693-.721-5.766 5.547zm7.928-7.626l5.765-5.546-.693-.721-5.765 5.547zm3.74 2.783l2.765-9.734-9.834 2.385a.5.5 0 00.236.972l9-2.183-.598-.623-2.53 8.91a.5.5 0 00.961.273zm-138.745-43.22l7.811 1.728-.216.976-7.81-1.728zm10.74 2.376l7.812 1.728-.216.976-7.812-1.728zm10.741 2.376l7.811 1.728-.216.976-7.811-1.728zm10.74 2.376l7.811 1.728-.216.976-7.811-1.728zm10.74 2.376l7.812 1.728-.216.976-7.812-1.728zm10.741 2.376l7.811 1.727-.216.977-7.811-1.728zm10.74 2.375l7.811 1.728-.216.977-7.811-1.728zm10.74 2.376l7.812 1.728-.216.977-7.812-1.728zm10.741 2.376l7.811 1.728-.216.977-7.811-1.728zm10.74 2.376l7.811 1.728-.216.977-7.811-1.728zm10.74 2.376l7.812 1.728-.216.977-7.812-1.728zm10.741 2.376l7.811 1.728-.216.977-7.811-1.728zm10.74 2.376l7.811 1.728-.216.976-7.811-1.728zm10.74 2.376l.326.072-.216.977-.326-.073zm-6.249-6.092l7.432 6.866-9.635 3.09a.5.5 0 11-.305-.952l8.819-2.829-.187.844-6.803-6.285a.5.5 0 11.679-.734zm-21.02-70.496l3.025 7.406-.925.378-3.026-7.406zm4.16 10.183l3.025 7.406-.925.378-3.026-7.406zm4.16 10.183l3.025 7.406-.925.378-3.026-7.406zm4.16 10.183l3.025 7.406-.925.378-3.026-7.406zm4.16 10.183l3.026 7.406-.926.378-3.026-7.406zm4.16 10.183l3.026 7.406-.926.378-3.026-7.406zm4.16 10.183l3.026 7.406-.926.378-3.026-7.406zm4.16 10.183l.961 2.352-.926.378-.961-2.352zm2.288-6.56l-1.415 10.019-8.025-6.163a.5.5 0 01.609-.793l7.345 5.641-.799.327 1.294-9.171a.5.5 0 01.991.14zm33.69-18.902l-5.913 5.388.673.74 5.914-5.388zm-8.131 7.409l-5.914 5.387.674.74 5.913-5.388zm-8.132 7.408l-5.913 5.387.673.74 5.914-5.388zm-8.13 7.408l-5.915 5.388.674.739 5.914-5.388zm-5.143-1.537l-3.027 9.656 9.895-2.118a.5.5 0 00-.21-.978l-9.056 1.939.582.638 2.77-8.837a.5.5 0 00-.954-.3z"/>
         <path d="M226.682 177.351l-2.377 7.64.955.296 2.376-7.638zm-3.268 10.504l-2.376 7.64.955.296 2.376-7.639zm-3.267 10.504l-2.376 7.639.955.297 2.376-7.64zm-3.267 10.503l-2.376 7.64.955.296 2.376-7.639zm-3.267 10.504l-2.376 7.639.955.297 2.376-7.64zm-3.267 10.503l-2.376 7.64.954.296 2.377-7.639zm-3.267 10.504l-2.377 7.64.955.296 2.376-7.639zm-3.268 10.504l-2.376 7.639.955.297 2.376-7.64zm-3.267 10.503l-1.227 3.946.955.297 1.227-3.946zm-3.317-4.818l2.273 9.86 7.464-6.831a.5.5 0 00-.675-.738l-6.832 6.253.825.256-2.08-9.025a.5.5 0 00-.975.225z"/>
         <path stroke-miterlimit="8" d="M223.5 114.623l10.164-4.123m-11.164 2h12.742" fill="none" stroke="#ed7d31"/>
         <path stroke-miterlimit="10" d="M223.5 284.623l10.164-4.123m-11.164 2h12.742" fill="none" stroke="#ed7d31" stroke-linejoin="round" stroke-dasharray="4 3"/>
         <path stroke-miterlimit="8" d="M339.5 170.5v9.451m-5-2.328l10.164-4.123" fill="none" stroke="#ed7d31"/>
         <path stroke-miterlimit="10" d="M160.5 170.5v9.451m-4-2.328l10.164-4.123" fill="none" stroke="#ed7d31" stroke-linejoin="round" stroke-dasharray="4 3"/>
         <path stroke-miterlimit="8" d="M153.5 201.5v9.451m-7-4.451h12.742" fill="none" stroke="#ed7d31"/>
         <path d="M466 143h178v170H466zm0 .03L579.608 97M644 143.03L757.017 97M644 312.78L756.858 267M756 97v170.351M579 98h177.658M85 144h178v169H85zm-1 .03L198.017 98M263 143.78L375.858 98M263 312.613L375.775 266M375 97v169.351M197 98h177.908" stroke-miterlimit="8" fill="none" stroke="#4472c4" stroke-width="2"/>
         <path d="M198 98v21.353h-2V98zm4.531 13.857L197 121.338l-5.53-9.481a.998.998 0 01.36-1.367.998.998 0 011.367.359l4.667 8h-1.728l4.667-8a1 1 0 011.728 1.008z" fill="#7030a0"/>
         <path d="M185.21 104.167l12.934-5.24-.75-1.854-12.934 5.24zm4.496-8.867l-6.71 8.686 10.863 1.565a1 1 0 00.286-1.98l-9.167-1.32.648 1.6 5.663-7.328a1 1 0 00-1.583-1.223z" fill="#7030a0"/>
         <path d="M197 97h21.115v2H197zm13.619-4.53L220.1 98l-9.481 5.531a1 1 0 01-1.008-1.728l8-4.667v1.728l-8-4.667a1 1 0 111.008-1.727z" fill="#7030a0"/>
         <text transform="translate(215.517 94)" font-size="19" font-weight="400" font-family="Calibri,Calibri_MSFontService,sans-serif">
            x<tspan y="5" x="-41.652">y</tspan> <tspan y="33" x="-27.666">z</tspan> <tspan y="-5" x="-25.943" fill="red">G</tspan> <tspan y="-1" x="-14.11" font-size="12" fill="red">A</tspan> <tspan y="-2" x="154.286" fill="red">G</tspan> <tspan y="2" x="166.12" font-size="12" fill="red">B</tspan> <tspan y="181" x="163.023" fill="red">G</tspan> <tspan y="185" x="174.856" font-size="12" fill="red">G</tspan> <tspan y="235" x="41.734" fill="red">G</tspan> <tspan y="239" x="53.568" font-size="12" fill="red">F</tspan> <tspan y="230" x="-146.785" fill="red">G</tspan> <tspan y="234" x="-134.951" font-size="12" fill="red">E</tspan> <tspan y="49" x="-153.746" fill="red">G</tspan> <tspan y="53" x="-141.913" font-size="12" fill="red">D</tspan> <tspan y="190" x="-22.939" fill="red">G</tspan> <tspan y="194" x="-11.106" font-size="12" fill="red">H</tspan> <tspan y="42" x="31.568" fill="red">G</tspan> <tspan y="46" x="43.402" font-size="12" fill="red">C</tspan> <tspan y="-4" x="352.557" fill="red">D</tspan> <tspan y="0" x="363.783" font-size="12" fill="red">A</tspan> <tspan y="-2" x="537.13" fill="red">D</tspan> <tspan y="2" x="548.63" font-size="12" fill="red">B</tspan>
         </text>
         <path d="M759.735 258.321h11.5v23h-11.5zm11.5 0h7.833v23h-7.833z" fill="#ff0" fill-rule="evenodd"/>
         <text transform="translate(759.735 276)" font-size="19" font-weight="400" font-family="Calibri,Calibri_MSFontService,sans-serif">
            D<tspan y="4" x="11.5" font-size="12">H</tspan> <tspan y="54" x="-122.709" fill="red">D</tspan> <tspan y="58" x="-111.209" font-size="12" fill="red">F</tspan> <tspan y="48" x="-309.588" fill="red">D</tspan> <tspan y="52" x="-298.088" font-size="12" fill="red">E</tspan>
         </text>
         <g transform="translate(407 97)" clip-path="url(#prefix__b)">
            <use xlink:href="#prefix__prefix__c" height="100%" width="100%"/>
         </g>
         <path d="M441.564 125.421h11.5v23h-11.5zm11.5 0h6.667v23h-6.667z" fill="#ff0" fill-rule="evenodd"/>
         <text transform="translate(441.564 143)" font-size="19" font-weight="400" font-family="Calibri,Calibri_MSFontService,sans-serif">
            D<tspan y="4" x="11.5" font-size="12">C</tspan>
         </text>
         <path d="M557.312 242.164h11.5v23h-11.5zm11.5 0h7.834v23h-7.834z" fill="#ff0" fill-rule="evenodd"/>
         <text transform="translate(557.312 260)" font-size="19" font-weight="400" font-family="Calibri,Calibri_MSFontService,sans-serif">
            D<tspan y="4" x="11.5" font-size="12">G</tspan>
         </text>
         <path d="M626.25 117.231h11.5v23h-11.5zm11.5 0h7.667v23h-7.667z" fill="#ff0" fill-rule="evenodd"/>
         <text transform="translate(626.25 135)" font-size="19" font-weight="400" font-family="Calibri,Calibri_MSFontService,sans-serif">
            D<tspan y="4" x="11.5" font-size="12">D</tspan>
         </text>
      </g>
   </g>
</svg>
